<?xml version="1.0" encoding="UTF-8"?>
<svg xmlns="http://www.w3.org/2000/svg" viewBox="0 0 36 36">
  <path fill="#99AAB5" d="M34 24c0 6.627-7.163 12-16 12S2 30.627 2 24c0-1.104.199-2.166.556-3.172C3.674 23.667 6.66 26 10 26c4.418 0 8-3.582 8-8V8c0-3.313 2.239-6 5-6 5.166 0 11 4.925 11 11v11z"/>
  <circle fill="#292F33" cx="27" cy="10" r="4"/>
  <circle fill="#292F33" cx="9" cy="10" r="4"/>
  <path fill="#CCD6DD" d="M34 19c0 6.627-7.163 12-16 12S2 25.627 2 19c0-1.152.217-2.268.611-3.333C3.749 18.667 6.378 21 10 21c4.418 0 8-3.582 8-8V6c0-3.313 2.239-6 5-6 5.166 0 11 4.925 11 11v8z"/>
  <path fill="#CCD6DD" d="M16 14c0 3.313-2.687 6-6 6s-6-2.687-6-6 2.687-6 6-6 6 2.687 6 6"/>
  <circle fill="#CCD6DD" cx="27" cy="8" r="6"/>
  <circle fill="#E1E8ED" cx="9" cy="13" r="3"/>
  <path fill="#E1E8ED" d="M27 13c-1.657 0-3-1.343-3-3s1.343-3 3-3 3 1.343 3 3-1.343 3-3 3"/>
  <path fill="#66757F" d="M18 21c0 1.657-1.343 3-3 3s-3-1.343-3-3 1.343-3 3-3 3 1.343 3 3m8 0c0 1.657-1.343 3-3 3s-3-1.343-3-3 1.343-3 3-3 3 1.343 3 3"/>
  <path fill="#99AAB5" d="M21 27h-6c-.552 0-1-.447-1-1s.448-1 1-1h6c.553 0 1 .447 1 1s-.447 1-1 1"/>
</svg> 